<?xml version="1.0" standalone="no"?>
<!DOCTYPE svg PUBLIC "-//W3C//DTD SVG 20010904//EN"
 "http://www.w3.org/TR/2001/REC-SVG-20010904/DTD/svg10.dtd">
<svg version="1.0" xmlns="http://www.w3.org/2000/svg"
 width="300.000000pt" height="300.000000pt" viewBox="0 0 300.000000 300.000000"
 preserveAspectRatio="xMidYMid meet">
<metadata>
Created by potrace 1.14, written by Peter Selinger 2001-2017
</metadata>
<g transform="translate(0.000000,300.000000) scale(0.100000,-0.100000)"
fill="#000000" stroke="none">
<path d="M1250 2132 c0 -21 5 -22 84 -22 89 0 116 -12 116 -49 0 -35 -29 -46
-119 -46 -70 0 -86 -3 -86 -15 0 -11 18 -17 73 -22 57 -5 79 -11 98 -29 26
-25 44 -75 44 -127 0 -91 91 -149 174 -110 38 16 54 48 62 117 l7 61 -58 0
c-52 0 -60 3 -91 34 -45 45 -47 92 -5 138 l30 33 95 -2 c89 -2 96 -1 96 17 0
18 -7 20 -95 20 -103 0 -145 -13 -166 -52 -11 -21 -12 -21 -24 8 -19 46 -36
54 -139 61 -94 6 -96 5 -96 -15z m259 -210 c18 -33 70 -62 114 -62 36 0 37 -1
37 -39 0 -79 -78 -118 -136 -67 -24 20 -29 34 -35 95 -4 52 -13 81 -29 102
l-22 31 24 25 23 25 5 -44 c3 -23 12 -53 19 -66z"/>
<path d="M1242 2072 c-9 -26 16 -33 104 -30 71 2 89 6 89 18 0 21 -185 32
-193 12z"/>
<path d="M1565 2045 c-31 -30 -33 -77 -5 -105 22 -22 45 -29 115 -32 l50 -3
-3 -75 c-4 -85 -19 -115 -73 -142 -47 -25 -99 -23 -139 5 -53 36 -72 69 -79
141 -10 95 -32 116 -124 116 -50 0 -68 -3 -65 -12 3 -8 28 -14 66 -16 75 -4
87 -17 95 -109 6 -79 34 -125 91 -152 52 -26 108 -26 161 -2 81 37 105 84 105
202 l0 79 -74 0 c-89 0 -123 19 -112 63 6 27 7 27 101 27 88 0 95 1 95 20 0
19 -7 20 -90 20 -83 0 -93 -2 -115 -25z"/>
<path d="M1828 2004 c-8 -18 -9 -30 -1 -42 11 -19 53 -29 53 -13 0 6 -7 11
-15 11 -9 0 -15 9 -15 25 0 18 5 25 20 25 11 0 20 5 20 10 0 6 -11 10 -25 10
-18 0 -29 -8 -37 -26z"/>
<path d="M2060 2020 c0 -5 5 -10 10 -10 6 0 10 5 10 10 0 6 -4 10 -10 10 -5 0
-10 -4 -10 -10z"/>
<path d="M2407 2014 c-11 -11 -8 -84 3 -84 6 0 10 9 10 20 0 11 5 20 10 20 6
0 10 -11 10 -25 0 -14 5 -25 11 -25 6 0 9 15 7 35 -2 20 -6 34 -10 33 -4 -2
-13 5 -20 15 -8 10 -17 15 -21 11z"/>
<path d="M1590 1990 c0 -19 6 -20 91 -20 81 0 90 2 87 18 -3 14 -17 17 -91 20
-82 3 -87 2 -87 -18z"/>
<path d="M1900 2001 c0 -6 5 -11 12 -11 6 0 4 -6 -7 -13 -23 -17 -12 -37 21
-37 22 0 25 4 22 33 -2 24 -8 33 -25 35 -13 2 -23 -1 -23 -7z"/>
<path d="M1960 1975 c0 -39 16 -48 23 -12 l4 22 2 -22 c1 -28 21 -31 21 -3 0
11 5 20 11 20 5 0 9 -8 7 -17 -1 -10 2 -19 7 -20 6 -2 10 12 10 29 0 31 -2 33
-42 36 l-43 3 0 -36z"/>
<path d="M2060 1965 c0 -19 5 -35 10 -35 6 0 10 16 10 35 0 19 -4 35 -10 35
-5 0 -10 -16 -10 -35z"/>
<path d="M2090 1965 c0 -19 5 -35 10 -35 6 0 10 9 10 19 0 11 5 23 10 26 6 4
10 -5 10 -19 0 -14 5 -26 10 -26 6 0 10 16 10 35 0 32 -2 35 -30 35 -28 0 -30
-3 -30 -35z"/>
<path d="M2166 1982 c-10 -30 4 -53 28 -50 31 4 30 62 -1 66 -14 2 -23 -3 -27
-16z m34 -18 c0 -8 -5 -12 -10 -9 -6 4 -8 11 -5 16 9 14 15 11 15 -7z"/>
<path d="M2235 1990 c-4 -6 -1 -17 5 -25 9 -11 9 -15 1 -15 -6 0 -11 -4 -11
-10 0 -5 10 -10 21 -10 17 0 20 5 17 25 -3 14 -1 25 4 25 5 0 6 5 3 10 -8 13
-32 13 -40 0z"/>
<path d="M2315 1964 c4 -25 2 -39 -6 -44 -16 -10 -2 -31 16 -24 14 6 49 94 40
102 -3 3 -12 -3 -20 -14 -13 -17 -14 -17 -15 -1 0 9 -5 17 -11 17 -7 0 -9 -12
-4 -36z"/>
<path d="M2824 1987 c-9 -24 0 -70 15 -75 9 -3 11 2 6 17 -4 12 -2 28 4 35 8
10 7 17 -4 26 -12 10 -16 9 -21 -3z"/>
<path d="M2473 1974 c-8 -22 9 -49 33 -49 30 0 27 59 -4 63 -14 2 -25 -3 -29
-14z m37 -19 c0 -8 -4 -15 -10 -15 -5 0 -10 7 -10 15 0 8 5 15 10 15 6 0 10
-7 10 -15z"/>
<path d="M2540 1955 c0 -19 5 -35 10 -35 6 0 10 9 10 19 0 11 5 23 10 26 17
10 11 25 -10 25 -16 0 -20 -7 -20 -35z"/>
<path d="M2590 1955 c0 -19 5 -35 10 -35 6 0 10 16 10 35 0 19 -4 35 -10 35
-5 0 -10 -16 -10 -35z"/>
<path d="M2620 1980 c0 -5 5 -10 12 -10 9 0 9 -3 0 -12 -18 -18 -14 -38 7 -38
12 0 19 7 19 18 0 9 3 25 7 35 6 14 2 17 -19 17 -14 0 -26 -4 -26 -10z"/>
<path d="M2680 1971 c-14 -27 -2 -51 25 -51 13 0 26 7 29 16 8 20 -10 54 -29
54 -8 0 -19 -9 -25 -19z m27 -23 c-3 -8 -6 -5 -6 6 -1 11 2 17 5 13 3 -3 4
-12 1 -19z"/>
<path d="M2750 1969 c0 -9 -3 -24 -6 -33 -4 -11 -1 -16 10 -16 10 0 16 9 17
23 l1 22 6 -23 c9 -31 26 -33 30 -3 4 27 -10 44 -38 46 -13 1 -20 -4 -20 -16z"/>
<path d="M2864 1966 c-10 -26 1 -51 24 -54 26 -4 30 14 5 21 -13 3 -12 5 5 6
17 1 22 6 20 19 -4 22 -46 29 -54 8z"/>
<path d="M2932 1955 c3 -14 1 -25 -3 -25 -5 0 -9 -4 -9 -10 0 -11 33 -14 43
-4 3 4 2 15 -4 25 -6 13 -6 19 1 19 5 0 10 5 10 10 0 6 -10 10 -21 10 -17 0
-20 -5 -17 -25z"/>
<path d="M731 1690 c-194 -93 -355 -171 -358 -173 -4 -4 92 -77 101 -77 4 0
606 406 614 415 11 10 -12 0 -357 -165z"/>
<path d="M946 1591 l-268 -268 52 -32 c29 -18 53 -31 54 -29 9 12 341 468 383
526 30 39 52 72 51 72 -2 0 -124 -121 -272 -269z"/>
<path d="M1052 1555 c-122 -167 -222 -306 -222 -308 0 -7 101 -79 105 -75 6 7
367 641 372 653 2 8 -4 18 -14 24 -17 9 -44 -24 -241 -294z"/>
<path d="M841 1635 c-155 -111 -287 -207 -292 -212 -5 -5 9 -22 37 -41 l45
-32 250 242 c222 216 256 249 247 247 -2 0 -131 -92 -287 -204z"/>
<path d="M1780 1800 c0 -29 32 -80 191 -305 105 -148 194 -274 199 -278 4 -5
31 4 59 20 l51 30 -221 254 c-121 140 -234 267 -250 284 l-29 30 0 -35z"/>
<path d="M1870 1784 c25 -27 137 -149 248 -271 112 -123 205 -223 207 -223 8
0 115 50 115 54 0 5 -575 466 -600 480 -8 5 5 -13 30 -40z"/>
<path d="M1890 1828 c3 -3 137 -108 298 -232 l293 -227 60 27 c32 15 59 30 59
33 0 4 -156 94 -347 201 -329 185 -375 210 -363 198z"/>
<path d="M558 1718 c-192 -56 -348 -104 -348 -107 0 -3 22 -20 48 -37 l47 -31
305 133 c168 74 310 136 315 138 45 20 -72 -11 -367 -96z"/>
<path d="M1147 1486 c-97 -183 -177 -335 -177 -337 0 -7 89 -53 93 -49 12 13
277 662 277 678 -1 60 -28 19 -193 -292z"/>
<path d="M370 1769 c-195 -21 -357 -38 -360 -38 -3 -1 23 -20 57 -42 l62 -41
343 80 c207 49 325 80 298 80 -25 0 -205 -18 -400 -39z"/>
<path d="M2012 1795 c4 -4 151 -83 327 -175 l319 -166 62 31 62 32 -28 11
c-16 6 -182 67 -369 136 -187 68 -349 128 -360 132 -11 4 -17 4 -13 -1z"/>
<path d="M2121 1786 c9 -10 691 -236 712 -236 19 0 162 69 155 75 -2 2 -188
38 -413 80 -226 42 -421 79 -435 82 -14 3 -22 3 -19 -1z"/>
<path d="M1347 1724 c-3 -5 -60 -153 -127 -328 l-123 -319 24 -17 c12 -10 35
-25 49 -34 l27 -15 86 329 c48 181 87 337 87 347 0 23 -16 48 -23 37z"/>
<path d="M1762 1705 c-11 -23 1 -51 124 -298 75 -149 138 -273 139 -275 2 -2
28 9 59 25 l56 28 -177 272 c-98 150 -181 273 -184 273 -3 0 -11 -11 -17 -25z"/>
<path d="M1361 1538 c-17 -73 -53 -226 -80 -341 l-48 -207 49 -30 c33 -21 50
-26 52 -18 12 38 86 697 80 711 -3 9 -10 17 -14 17 -4 0 -22 -60 -39 -132z"/>
<path d="M1706 1627 c-16 -12 -10 -32 80 -287 54 -151 99 -277 101 -279 3 -4
103 39 103 44 0 5 -260 535 -263 535 -2 0 -11 -6 -21 -13z"/>
<path d="M1440 1600 c0 -11 -16 -164 -35 -341 -19 -178 -35 -330 -35 -338 0
-16 68 -67 76 -58 3 2 12 170 20 372 13 308 14 369 2 376 -21 13 -28 11 -28
-11z"/>
<path d="M1641 1591 c-12 -8 -5 -57 44 -303 32 -161 59 -294 61 -296 4 -6 104
48 104 56 1 13 -185 552 -190 552 -3 0 -11 -4 -19 -9z"/>
<path d="M1500 1543 c0 -133 -12 -650 -15 -665 -4 -22 5 -22 52 -1 21 10 39
18 40 18 1 1 -6 140 -17 311 -11 170 -20 321 -20 336 0 17 -8 31 -20 38 -19
10 -20 8 -20 -37z"/>
<path d="M1574 1518 c3 -35 13 -182 22 -328 9 -146 18 -266 19 -268 5 -5 83
37 90 47 3 6 -18 145 -47 311 -47 271 -54 300 -71 300 -18 0 -19 -6 -13 -62z"/>
</g>
</svg>
